# xmcd
#
# Track frame offsets:
# 150
# 13035
# 24855
# 37360
# 52742
# 62005
# 73930
# 89480
# 103627
# 111945
#
# Disc length: 1650 seconds
#
# Revision: 0
# Processed by: cddbd v1.5.1PL2 Copyright (c) Steve Scherf et al.
# Submitted via: Audion 3.0.2 (http://www.panic.com/audion/)
#
DISCID=8406700a
DTITLE=Trío Matamoros - Un recuerdo de Cuba
DYEAR=1900
DGENRE=
TTITLE0=El trio y el ciclón
TTITLE1=La china en la rumba
TTITLE2=Beso Discreto
TTITLE3=Bolichan
TTITLE4=El puerquito en la yuca
TTITLE5=Alegre conga
TTITLE6=Las ruinas de mi bohio
TTITLE7=Puro amor
TTITLE8=Sangre de conga
TTITLE9=Conciencia
EXTD=
EXTT0=
EXTT1=
EXTT2=
EXTT3=
EXTT4=
EXTT5=
EXTT6=
EXTT7=
EXTT8=
EXTT9=
PLAYORDER=
